<?xml version="1.0" encoding="UTF-8" standalone="no"?>
<!-- Created with Inkscape (http://www.inkscape.org/) -->

<svg
   xmlns:dc="http://purl.org/dc/elements/1.1/"
   xmlns:cc="http://creativecommons.org/ns#"
   xmlns:rdf="http://www.w3.org/1999/02/22-rdf-syntax-ns#"
   xmlns:svg="http://www.w3.org/2000/svg"
   xmlns="http://www.w3.org/2000/svg"
   xmlns:sodipodi="http://sodipodi.sourceforge.net/DTD/sodipodi-0.dtd"
   xmlns:inkscape="http://www.inkscape.org/namespaces/inkscape"
   width="210mm"
   height="297mm"
   viewBox="0 0 744.09448819 1052.3622047"
   id="svg2"
   version="1.1"
   inkscape:version="0.91 r13725"
   sodipodi:docname="logo_segundo boceto.svg">
  <defs
     id="defs4">
    <clipPath
       clipPathUnits="userSpaceOnUse"
       id="clipPath4168">
      <rect
         style="opacity:1;fill:#552200;fill-opacity:1;fill-rule:nonzero;stroke:#000000;stroke-width:3.5999999;stroke-linecap:round;stroke-linejoin:round;stroke-miterlimit:4;stroke-dasharray:none;stroke-opacity:1"
         id="rect4170"
         width="408.6207"
         height="858.62067"
         x="-503.44827"
         y="-95.913658" />
    </clipPath>
    <clipPath
       clipPathUnits="userSpaceOnUse"
       id="clipPath4168-9">
      <rect
         style="opacity:1;fill:#552200;fill-opacity:1;fill-rule:nonzero;stroke:#000000;stroke-width:3.5999999;stroke-linecap:round;stroke-linejoin:round;stroke-miterlimit:4;stroke-dasharray:none;stroke-opacity:1"
         id="rect4170-4"
         width="408.6207"
         height="858.62067"
         x="-503.44827"
         y="-95.913658" />
    </clipPath>
  </defs>
  <sodipodi:namedview
     id="base"
     pagecolor="#ffffff"
     bordercolor="#666666"
     borderopacity="1.0"
     inkscape:pageopacity="0.0"
     inkscape:pageshadow="2"
     inkscape:zoom="0.58"
     inkscape:cx="207.13029"
     inkscape:cy="520"
     inkscape:document-units="px"
     inkscape:current-layer="layer1"
     showgrid="false"
     inkscape:window-width="1920"
     inkscape:window-height="1017"
     inkscape:window-x="-8"
     inkscape:window-y="-8"
     inkscape:window-maximized="1" />
  <metadata
     id="metadata7">
    <rdf:RDF>
      <cc:Work
         rdf:about="">
        <dc:format>image/svg+xml</dc:format>
        <dc:type
           rdf:resource="http://purl.org/dc/dcmitype/StillImage" />
        <dc:title></dc:title>
      </cc:Work>
    </rdf:RDF>
  </metadata>
  <g
     inkscape:label="Capa 1"
     inkscape:groupmode="layer"
     id="layer1">
    <path
       style="fill:#552200;fill-rule:evenodd;stroke:#000000;stroke-width:1px;stroke-linecap:butt;stroke-linejoin:miter;stroke-opacity:1"
       d="m -557.23949,622.6627 c -22.29363,120.37226 -67.40746,246.44962 -56.89655,358.62072 65.40996,15.2643 133.01713,23.93698 212.06897,-1.7242 16.83691,-113.7103 -24.00698,-233.82961 -44.82759,-351.72411 z"
       id="path4140-9"
       inkscape:connector-curvature="0"
       sodipodi:nodetypes="ccccc" />
    <path
       style="fill:#552200;fill-rule:evenodd;stroke:#000000;stroke-width:1px;stroke-linecap:butt;stroke-linejoin:miter;stroke-opacity:1"
       d="M 282.75862,586.84497 C 260.46499,707.21723 215.35116,833.29454 225.86207,945.4657 291.27203,960.73 358.8792,969.40268 437.93104,943.7415 454.76795,830.03119 413.92406,709.91188 393.10345,592.01738 Z"
       id="path4140"
       inkscape:connector-curvature="0"
       sodipodi:nodetypes="ccccc" />
    <path
       style="fill:#008000;fill-rule:evenodd;stroke:#000000;stroke-width:1px;stroke-linecap:butt;stroke-linejoin:miter;stroke-opacity:1"
       d="M 487.93103,676.50014 C 398.85057,768.91857 309.77012,756.91428 220.68966,674.776 12.796985,703.1987 -42.106846,636.58288 53.448276,476.50014 -80.339984,391.86768 -54.814806,308.25481 50,228.22427 -27.264535,22.798817 88.736589,10.639024 248.27586,42.017377 c 46.24881,-42.90868013 66.12077,-57.054524 93.09685,-55.911271 35.97313,1.52455 73.84453,30.2373 100.0066,54.187133 174.19558,-26.563479 200.00395,81.165661 196.55172,187.931031 58.36018,72.01838 129.88911,137.17587 -3.44827,275.86207 46.83934,214.40273 -91.50832,125.09878 -146.55173,172.4138 z"
       id="path4138"
       inkscape:connector-curvature="0"
       sodipodi:nodetypes="cccccscccc" />
    <g
       id="g4193">
      <path
         transform="translate(4,0)"
         clip-path="url(#clipPath4168)"
         sodipodi:nodetypes="cccccscccc"
         inkscape:connector-curvature="0"
         id="path4138-4"
         d="m -355.10671,654.89715 c -89.08046,92.41843 -178.16091,80.41414 -267.24137,-1.72414 -207.89268,28.4227 -262.79651,-38.19312 -167.24138,-198.27586 -133.78826,-84.63246 -108.26309,-168.24533 -3.44828,-248.27586 -77.26454,-205.4254531 38.73659,-217.585253 198.27586,-186.206893 46.24881,-42.90868 66.12077,-57.05453 93.09685,-55.91127 35.97313,1.52455 73.84453,30.2372899 100.0066,54.18713 174.19558,-26.5634801 200.00395,81.165665 196.55172,187.931033 58.36018,72.01837 129.889107,137.17586 -3.44827,275.86206 46.83934,214.40273 -91.50832,125.09878 -146.55173,172.4138 z"
         style="fill:#008000;fill-rule:evenodd;stroke:#000000;stroke-width:1px;stroke-linecap:butt;stroke-linejoin:miter;stroke-opacity:1" />
      <path
         clip-path="url(#clipPath4168-9)"
         sodipodi:nodetypes="cccccscccc"
         inkscape:connector-curvature="0"
         id="path4138-4-6"
         d="m -355.10671,654.89715 c -89.08046,92.41843 -178.16091,80.41414 -267.24137,-1.72414 -207.89268,28.4227 -262.79651,-38.19312 -167.24138,-198.27586 -133.78826,-84.63246 -108.26309,-168.24533 -3.44828,-248.27586 -77.26454,-205.4254531 38.73659,-217.585253 198.27586,-186.206893 46.24881,-42.90868 66.12077,-57.05453 93.09685,-55.91127 35.97313,1.52455 73.84453,30.2372899 100.0066,54.18713 174.19558,-26.5634801 200.00395,81.165665 196.55172,187.931033 58.36018,72.01837 129.889107,137.17586 -3.44827,275.86206 46.83934,214.40273 -91.50832,125.09878 -146.55173,172.4138 z"
         style="fill:#008000;fill-rule:evenodd;stroke:#000000;stroke-width:1px;stroke-linecap:butt;stroke-linejoin:miter;stroke-opacity:1"
         transform="matrix(-1,0,0,1,-1000.6392,2.7586207e-6)" />
    </g>
  </g>
</svg>
