<?xml version="1.0" encoding="UTF-8" standalone="no"?>
<!-- Created with Inkscape (http://www.inkscape.org/) -->

<svg
   xmlns:dc="http://purl.org/dc/elements/1.1/"
   xmlns:cc="http://creativecommons.org/ns#"
   xmlns:rdf="http://www.w3.org/1999/02/22-rdf-syntax-ns#"
   xmlns:svg="http://www.w3.org/2000/svg"
   xmlns="http://www.w3.org/2000/svg"
   xmlns:sodipodi="http://sodipodi.sourceforge.net/DTD/sodipodi-0.dtd"
   xmlns:inkscape="http://www.inkscape.org/namespaces/inkscape"
   width="210mm"
   height="297mm"
   viewBox="0 0 744.09448819 1052.3622047"
   id="svg2"
   version="1.1"
   inkscape:version="0.91 r13725"
   sodipodi:docname="logo_primer boceto.svg">
  <defs
     id="defs4" />
  <sodipodi:namedview
     id="base"
     pagecolor="#ffffff"
     bordercolor="#666666"
     borderopacity="1.0"
     inkscape:pageopacity="0.0"
     inkscape:pageshadow="2"
     inkscape:zoom="0.58"
     inkscape:cx="153.78304"
     inkscape:cy="520"
     inkscape:document-units="px"
     inkscape:current-layer="layer1"
     showgrid="false"
     inkscape:window-width="1920"
     inkscape:window-height="1017"
     inkscape:window-x="-8"
     inkscape:window-y="-8"
     inkscape:window-maximized="1" />
  <metadata
     id="metadata7">
    <rdf:RDF>
      <cc:Work
         rdf:about="">
        <dc:format>image/svg+xml</dc:format>
        <dc:type
           rdf:resource="http://purl.org/dc/dcmitype/StillImage" />
        <dc:title></dc:title>
      </cc:Work>
    </rdf:RDF>
  </metadata>
  <g
     inkscape:label="Capa 1"
     inkscape:groupmode="layer"
     id="layer1">
    <path
       style="opacity:1;fill:#784421;fill-opacity:1;fill-rule:nonzero;stroke:#000000;stroke-width:6.20689631;stroke-linecap:round;stroke-linejoin:round;stroke-miterlimit:4;stroke-dasharray:none;stroke-opacity:1"
       d="m 376.75897,775.47704 c -13.51897,-2.01135 -27.36096,-5.13438 -29.96036,-6.75971 -2.6081,-1.63076 -1.70075,-19.2629 5.10927,-99.28616 8.4605,-99.41776 16.97038,-145.94838 34.17525,-186.86468 4.63275,-11.01753 10.16366,-25.7657 12.29091,-32.77372 l 3.86772,-12.74186 4.06358,6.70738 c 6.13538,10.12709 15.75018,33.95374 21.47486,53.21734 10.58918,35.63264 15.48718,73.69153 20.53006,159.52451 1.92211,32.71552 4.40911,68.40517 5.52667,79.31034 3.23224,31.54011 3.72625,29.28616 -7.25038,33.08031 -19.44701,6.72204 -49.72156,9.57757 -69.82758,6.58625 z"
       id="path4146"
       inkscape:connector-curvature="0" />
    <path
       style="opacity:1;fill:#008000;fill-opacity:1;fill-rule:nonzero;stroke:#000000;stroke-width:6.20689631;stroke-linecap:round;stroke-linejoin:round;stroke-miterlimit:4;stroke-dasharray:none;stroke-opacity:1"
       d="m 465.93347,566.84496 c -11.16424,-5.05653 -11.33484,-5.07598 -44.82758,-5.1111 -18.61295,-0.0195 -38.62328,0.87616 -44.82759,2.0065 -17.24521,3.14188 -76.81967,2.63748 -96.55172,-0.81747 -80.86321,-14.1586 -133.1876,-50.2496 -141.41287,-97.5402 -3.20074,-18.40245 1.71085,-40.21269 13.8443,-61.47655 l 4.92353,-8.62847 -10.00391,-9.934 c -27.33897,-27.14791 -30.76429,-59.3639 -10.20489,-95.97941 6.19818,-11.03871 12.01833,-18.85419 25.75772,-34.58826 l 9.78615,-11.2069 -1.41465,-8.62069 c -2.46635,-15.02956 -1.84372,-55.07981 1.07998,-69.46924 7.30559,-35.95549 29.93125,-62.71813 63.801,-75.466672 38.42588,-14.463462 104.91822,-11.92352 163.63986,6.250883 11.40057,3.528488 12.86047,3.6014 27.58621,1.377755 22.84798,-3.450131 77.78565,-3.028853 92.68189,0.710714 36.41124,9.1407 60.62593,24.07534 95.44402,58.86599 20.00854,19.99277 25.33857,26.4079 30.17241,36.31501 5.29947,10.86142 5.86607,13.4628 5.82064,26.72414 -0.0331,9.67856 -1.62619,21.47188 -4.66877,34.5632 -9.21549,39.65143 -8.1285,64.35645 3.71513,84.43857 18.75237,31.79657 26.03973,52.57224 27.26087,77.71858 1.47481,30.36993 -5.52602,47.88545 -27.85669,69.69521 -21.35455,20.85641 -44.18031,33.01391 -101.94268,54.29697 -24.38596,8.98522 -33.16229,13.08337 -40.51724,18.91974 -17.18289,13.63513 -24.00134,14.78391 -41.28512,6.9557 z"
       id="path4138"
       inkscape:connector-curvature="0" />
    <text
       xml:space="preserve"
       style="font-style:normal;font-variant:normal;font-weight:bold;font-stretch:normal;font-size:73.75500488px;line-height:125%;font-family:'Arial Rounded MT Bold';-inkscape-font-specification:'Arial Rounded MT Bold, Bold';text-align:start;letter-spacing:0px;word-spacing:0px;writing-mode:lr-tb;text-anchor:start;fill:#c6e9af;fill-opacity:1;stroke:none;stroke-width:1px;stroke-linecap:butt;stroke-linejoin:miter;stroke-opacity:1"
       x="136.32664"
       y="341.20819"
       id="text4152"
       sodipodi:linespacing="125%"><tspan
         sodipodi:role="line"
         id="tspan4154"
         x="136.32664"
         y="341.20819">SAFAQAT LTD</tspan></text>
  </g>
</svg>
